<svg xmlns="http://www.w3.org/2000/svg" viewBox="0 0 400.746 400.746"><path d="M163.775 58.293c6.971 12.984 12.148 26.594 16.184 40.555 6.434 1.211 13.188 1.955 20.414 1.955 4.637 0 9.073-.316 13.363-.852-11.871-27.975-27.332-55.242-50.188-75.049-4.36-3.686-10.972-10.844-17.242-10.287-8.706.772-8.051 9.943-3.741 14.889 8.07 9.259 15.356 17.845 21.21 28.789zM217.885 77.41c15.609 16.932 32.248 7.639 46.406-5.754 17.645-16.672 41.592-60.687 36.881-66.557-4.713-5.867-62.918-10.58-83.055 9.137-34.07 33.359-.232 63.174-.232 63.174z"/><path d="M331.877 105.871c-10.517-6.791-20.257-9.955-30.654-9.955-12.508 0-24.732 4.533-38.888 9.783-17.446 6.469-37.221 13.801-61.962 13.801-24.741 0-44.517-7.332-61.964-13.803-14.156-5.248-26.381-9.781-38.887-9.781-10.397 0-20.137 3.164-30.654 9.955-54.47 35.182-38.047 109.109-26.055 163.088l1.132 5.105c7.787 35.266 21.014 66.982 37.246 89.311 18.026 24.799 38.622 37.371 61.213 37.371 7.595 0 15.534-1.455 23.594-4.326 3.831-1.365 6.859-3.262 10.063-5.268 5.62-3.52 11.99-7.508 21.645-7.508h5.334c9.656 0 16.025 3.988 21.645 7.508 3.204 2.006 6.231 3.902 10.064 5.268 8.058 2.871 15.996 4.326 23.594 4.326h.006c22.592.002 43.184-12.57 61.208-37.367 16.229-22.326 29.456-54.045 37.244-89.313l1.132-5.105c11.992-53.981 28.416-127.909-26.056-163.09z"/></svg>