<svg data-name="Layer 1" xmlns="http://www.w3.org/2000/svg" viewBox="0 0 600 600"><path fill="none" d="M0 0h600v600H0z"/><path d="M297.16 597.69c-6.14-1.3-10.51-5.23-14.81-9.53q-40.85-40.87-81.88-81.58-32.29-32.13-64.61-64.24Q108.07 414.7 80.3 387 44.18 351.06 8 315.17c-4.24-4.19-7.56-8.64-8-14.78a19.16 19.16 0 015.66-15.49q45.68-45.54 91.39-91.06 25.74-25.62 51.55-51.19 22.18-22.08 44.32-44.19 36.11-36 72.24-71.88c6.84-6.82 13.68-13.68 20.59-20.45 11.24-11 29.48-6.55 33.65 8.24 2.07 7.34.53 14.07-4.86 19.48C295.75 52.7 276.82 71.42 258 90.18q-12.54 12.44-25 24.82-34.57 34.44-69.13 68.9-36.43 36.28-72.92 72.54-20.33 20.22-40.65 40.41a23.79 23.79 0 01-2.08 1.63c.88.93 1.44 1.57 2 2.17q33.63 33.52 67.26 67 35.5 35.36 71.05 70.69l73.61 73.22 47.25 47c1.87 1.86 3.85 3.62 5.59 5.59 10.35 11.72 4.73 29.32-10.49 33a7.78 7.78 0 00-1.08.46z"/></svg>