<svg xmlns="http://www.w3.org/2000/svg" xmlns:xlink="http://www.w3.org/1999/xlink" width="16" height="16" viewBox="0 0 16 16">
    <defs>
        <path id="95dwu5lj8a" d="M0 0L16 0 16 16 0 16z"/>
    </defs>
    <g fill="none" fill-rule="evenodd">
        <g>
            <g>
                <g>
                    <g transform="translate(-165 -309) translate(0 175) translate(165 134)">
                        <mask id="opdybfljsb" fill="#fff">
                            <use xlink:href="#95dwu5lj8a"/>
                        </mask>
                        <path fill="#000" d="M8 0C3.6 0 .005 3.589 0 7.99-.005 12.412 3.607 16 8.001 16c.068 0 .135 0 .203-.003 1.64-.04 3.155-.575 4.407-1.459.06-.042.13-.064.2-.064.039 0 .078.007.116.02l1.95.69c.025.008.05.012.074.012.142 0 .256-.143.204-.29l-.687-1.943c-.037-.107-.02-.225.046-.317.894-1.252 1.437-2.772 1.483-4.417.126-4.49-3.5-8.227-7.994-8.229H8zm.003.587c1.016 0 2.001.204 2.928.606.894.387 1.694.94 2.378 1.645.685.705 1.216 1.521 1.579 2.428.375.938.551 1.93.522 2.947-.041 1.477-.516 2.892-1.374 4.092-.177.247-.222.567-.12.854l.428 1.214-1.222-.432c-.1-.035-.205-.053-.31-.053-.195 0-.381.059-.54.17-1.2.849-2.611 1.316-4.082 1.353-.063.002-.126.002-.189.002-.997 0-1.966-.197-2.88-.585-.884-.375-1.68-.913-2.362-1.597-.682-.682-1.217-1.476-1.59-2.357C.78 9.96.584 8.99.586 7.99c0-.996.198-1.964.586-2.876.375-.882.911-1.674 1.593-2.355.682-.682 1.475-1.216 2.357-1.59C6.036.783 7.003.587 8 .587h.003z" mask="url(#opdybfljsb)"/>
                    </g>
                    <path fill="#000" d="M6.08 8c0 .353-.287.64-.64.64-.353 0-.64-.287-.64-.64 0-.353.287-.64.64-.64.353 0 .64.287.64.64M8.64 8c0 .353-.287.64-.64.64-.353 0-.64-.287-.64-.64 0-.353.287-.64.64-.64.353 0 .64.287.64.64M11.2 8c0 .353-.287.64-.64.64-.353 0-.64-.287-.64-.64 0-.353.287-.64.64-.64.353 0 .64.287.64.64" transform="translate(-165 -309) translate(0 175) translate(165 134)"/>
                </g>
            </g>
        </g>
    </g>
</svg>
