<svg xmlns="http://www.w3.org/2000/svg" viewBox="0 0 474 474"><path d="M437.5 59.3h-401C16.4 59.3 0 75.7 0 95.8v282.4c0 20.1 16.4 36.5 36.5 36.5h401c20.1 0 36.5-16.4 36.5-36.5V95.8c0-20.1-16.4-36.5-36.5-36.5zm-5.3 27L239.5 251.1 46.8 86.3h385.4zM447 378.2c0 5.2-4.3 9.5-9.5 9.5h-401c-5.2 0-9.5-4.3-9.5-9.5V104.9l203.7 174.2c.1.1.3.2.4.3.1.1.3.2.4.3.3.2.5.4.8.5.1.1.2.1.3.2l1.2.6c.1 0 .2.1.3.1.3.1.6.3 1 .4.1 0 .3.1.4.1.3.1.6.2.9.2.1 0 .3.1.4.1.3.1.7.1 1 .2h.3c.4 0 .9.1 1.3.1s.9 0 1.3-.1h.3c.3 0 .7-.1 1-.2.1 0 .3-.1.4-.1.3-.1.6-.2.9-.2.1 0 .3-.1.4-.1.3-.1.6-.2 1-.4.1 0 .2-.1.3-.1l1.2-.6c.1-.1.2-.1.3-.2.3-.2.5-.3.8-.5.1-.1.3-.2.4-.3.1-.1.3-.2.4-.3L447 109.2v269z"/></svg>