<svg data-name="Layer 1" xmlns="http://www.w3.org/2000/svg" viewBox="0 0 600 600"><path fill="none" d="M0 0h600v600H0z"/><path d="M302.84 0c6.14 1.3 10.51 5.23 14.81 9.53q40.85 40.89 81.88 81.58 32.3 32.13 64.61 64.24 27.8 27.66 55.56 55.34 36.12 35.94 72.28 71.83c4.24 4.19 7.56 8.65 8 14.78a19.16 19.16 0 01-5.61 15.49q-45.7 45.56-91.37 91.06-25.74 25.62-51.55 51.2-22.18 22.07-44.32 44.19-36.1 35.94-72.24 71.87c-6.86 6.82-13.68 13.69-20.59 20.45-11.24 11-29.48 6.56-33.65-8.24-2.07-7.34-.53-14.07 4.86-19.48 18.79-18.85 37.72-37.56 56.59-56.33q12.49-12.42 25-24.85 34.57-34.44 69.13-68.89 36.44-36.3 72.92-72.55 20.32-20.21 40.65-40.41a23.79 23.79 0 012.08-1.63c-.88-.93-1.44-1.57-2-2.17q-33.63-33.51-67.26-67-35.5-35.37-71-70.69l-73.75-73.26L290.62 39c-1.87-1.86-3.85-3.62-5.59-5.59-10.35-11.72-4.73-29.33 10.49-33A6.74 6.74 0 00296.6 0z"/></svg>