<svg data-name="Layer 1" xmlns="http://www.w3.org/2000/svg" viewBox="0 0 600 600"><path d="M600.24 212.24c-.3 2.91-.66 5.82-.88 8.73a299 299 0 01-29.79 109.77C551 369 526.11 403 497.5 434.21a834 834 0 01-141.79 123.55 95.93 95.93 0 01-56.35 17.31 97.16 97.16 0 01-55.73-17.85 841.76 841.76 0 01-100.48-81.83c-22.17-21-43.37-43-62.51-66.85-24.1-30.07-44.62-62.3-59.09-98.16a293 293 0 01-20.4-85.61c-.45-5.33-.66-10.68-1-16a6.47 6.47 0 00-.38-1.31v-7.67A9.63 9.63 0 00.14 198a195.6 195.6 0 0115.51-71.91c13.06-30.77 32.65-56.4 61-74.51C113.66 28 154.39 21 197.35 27c38.18 5.35 71 22.24 99 48.7 2.58 2.43 5.13 2.24 8-.49a178.73 178.73 0 0148.89-33.34c37.72-17.6 77-21.14 117.44-12.2 33.75 7.45 62.41 23.71 85.06 50 26.32 30.5 39.69 66.4 43.58 106.14q.45 4.61.92 9.21zm-22.32-8.53v-5a175.51 175.51 0 00-12.81-61.56c-10.85-26.77-27.32-49.29-51.52-65.51-31.88-21.38-67.42-27.74-104.9-23.15-34.54 4.23-64.31 19.21-89.51 43.2-11 10.45-27.09 10.5-38.05 0a161.59 161.59 0 00-45-30.49c-30.72-14-62.68-17.36-95.79-11.19C97 58.12 64.46 81.41 43.26 120c-16.56 30.11-22.9 62.58-20.58 96.81A277.15 277.15 0 0038 291.11c12.25 34.52 30.85 65.48 52.93 94.49 19.32 25.39 41.16 48.47 64.17 70.5a817.94 817.94 0 00101.37 83c27 18.62 60.4 18.55 87.42-.07a776.15 776.15 0 0071.64-55.85c31.65-27.76 61.71-57.1 88-90.13 21-26.38 39.08-54.5 52.36-85.57a274.53 274.53 0 0022.03-103.77z"/></svg>