<svg id="Layer_1" data-name="Layer 1" xmlns="http://www.w3.org/2000/svg" viewBox="0 0 600 600"><defs><style>.cls-2{fill:#fff}</style></defs><path fill="none" d="M0 0h600v600H0z"/><path class="cls-2" d="M124.74 588A50.9 50.9 0 0174 537.11V94a83.11 83.11 0 0183-83h285.8a83.1 83.1 0 0183 83v443a50.73 50.73 0 01-66 48.55l-144.01-44.86a51.79 51.79 0 00-30.72 0l-145.17 45a51.18 51.18 0 01-15.16 2.31z"/><path class="cls-2" d="M442.81 22a72.08 72.08 0 0172 72v443a39.85 39.85 0 01-39.74 39.89 40.28 40.28 0 01-11.95-1.84l-144.06-44.87a62.92 62.92 0 00-37.25 0l-145.16 45a40.39 40.39 0 01-11.91 1.82A39.86 39.86 0 0185 537.11V94a72.09 72.09 0 0172-72h285.8m0-22H157a94 94 0 00-94 94v443.1a61.72 61.72 0 0080.16 59.07l145.17-45a40.88 40.88 0 0124.19 0l144.06 44.86a61.72 61.72 0 0080.23-59V94a94 94 0 00-94-94z"/></svg>