<svg data-name="Layer 1" xmlns="http://www.w3.org/2000/svg" viewBox="0 0 600 600"><path fill="none" d="M0 0h600v600H0z"/><path d="M451.16.71c4.28.79 8.6 1.44 12.84 2.38 37.06 8.23 66.17 39.57 71.6 77.2a106.84 106.84 0 011.13 15.27q.09 220.24 0 440.49c0 32.16-21.57 57.55-53.26 62.54a60 60 0 01-27.44-2.36q-71.62-22.31-143.26-44.6a40.62 40.62 0 00-24.73 0Q215.58 574.1 143.1 596.5a61.73 61.73 0 01-79.38-50.59 56 56 0 01-.52-7.65V93.93c0-24.46 8.7-45.79 25.42-63.61 16-17 35.75-26.71 59-29.2A6.79 6.79 0 00149 .71zm63.55 314.23V96.72a92 92 0 00-.64-10.72 71.87 71.87 0 00-71.3-63.2q-142.32 0-284.64.07a84.41 84.41 0 00-15.46 1.46C110.31 30.4 85.3 60.68 85.3 93.63V537.5c0 26.49 25.68 45.73 51 38q71.16-21.84 142.18-44.08c13.5-4.23 26.89-5.17 40.49-1 8.85 2.69 17.67 5.51 26.51 8.27q58.71 18.28 117.43 36.58a39.36 39.36 0 0043.37-13.49c6-7.66 8.46-16.47 8.46-26.14q-.07-110.4-.03-220.7z"/></svg>