<svg class="icon" viewBox="0 0 1024 1024" xmlns="http://www.w3.org/2000/svg" width="200" height="200"><path d="M957.6 868.8L851.2 762.4c54.4-73.6 87.2-164.8 87.2-263.2 0-243.2-197.6-440.8-440.8-440.8S57.6 256.8 57.6 500s197.6 440.8 440.8 440.8c98.4 0 189.6-32.8 263.2-87.2L868 960c12.8 12.8 28.8 18.4 45.6 18.4s32.8-6.4 45.6-18.4c23.2-25.6 23.2-66.4-1.6-91.2zM498.4 812c-172 0-312.8-140-312.8-312.8 0-172 140-312.8 312.8-312.8 172 0 312.8 140 312.8 312.8C810.4 672 670.4 812 498.4 812z" data-spm-anchor-id="a313x.7781069.0.i1" class="selected" style="user-select:auto"/></svg>