<svg data-name="Layer 1" xmlns="http://www.w3.org/2000/svg" viewBox="0 0 600 600"><path fill="none" d="M0 0h600v600H0z"/><path d="M495.4.13c4 .73 8 1.2 11.89 2.25 37.47 10.15 59.79 34.4 67.06 72.48.36 1.88 1 2.32 2.73 2.28 3.67-.1 7.35-.07 11 0 6.45.09 11.16 4.77 11.14 11S594.49 98.94 588 99h-13.09c-4.55 41.45-40.63 76-85.23 77.05a88.07 88.07 0 01-74.08-37A88 88 0 01400 99H13.12C6.75 99 2.7 96.34 1.17 91.13a10.87 10.87 0 019.34-13.94 31.16 31.16 0 013.35-.08h382.29c3.77 0 3.77 0 4.38-3.64A88 88 0 01474.69 1c1.64-.23 3.26-.57 4.88-.86zm-8 153.88a66.16 66.16 0 0065.88-68.1c-1.1-34.29-29.21-63.4-64.89-63.66-37.26-.28-66.8 29-66.82 65.8A66.06 66.06 0 00487.35 154zM399.93 500.8c3.73-25.08 15.37-45.25 35.63-60.16a85.49 85.49 0 0154.34-16.87c44.2 1.18 80 35 85 77 4.5 0 9-.07 13.57 0a10.94 10.94 0 01-.08 21.87q-5.64.1-11.27 0c-1.69 0-2.4.32-2.75 2.24-6.82 36.59-27.84 61.15-63.59 71.53-50 14.52-101.57-18.7-110.24-70.08-.62-3.67-.62-3.67-4.35-3.67H13.42a18 18 0 01-5-.5c-5.31-1.51-8.35-6.61-7.55-12.3a10.84 10.84 0 0110.3-9c1-.05 1.92 0 2.88 0h385.88zm87.57-55c-36.16-.05-65.92 29.53-66 65.57-.06 36.22 29.25 66 64.75 66.32 37 .38 68.16-30 66.94-68.2a66.18 66.18 0 00-65.69-63.69zM200.05 309.9c-5.78 43.59-41.73 75.1-83.05 76.87-23 .98-43.41-5.77-61-20.51s-27.54-33.62-30.77-56.36H13.37c-6.79 0-11.65-4.63-11.63-11s4.87-10.94 11.69-11h11.68c5.19-43.2 43.09-78.25 90-77a88.23 88.23 0 0185 77h386.68a16.65 16.65 0 015.41.74c5 1.72 7.71 6.66 6.92 12a10.9 10.9 0 01-10.2 9.18c-.88.05-1.76 0-2.64 0H200.05zm-21.68-11c.72-33.57-27.12-65.79-65.75-65.89a65.83 65.83 0 00-65.81 65.65c0 36.33 29.28 65.83 65.1 66.12 37.63.32 67.09-30.99 66.46-65.87z"/></svg>