<svg data-name="Layer 1" xmlns="http://www.w3.org/2000/svg" viewBox="0 0 600 600"><path fill="none" d="M0 0h600v600H0z"/><path d="M599.77 519.67c-.79 4.29-1.42 8.62-2.41 12.87-8.4 36-39.93 63.44-76.67 66.82-45 4.14-84.63-24.42-94.75-68.46a86.1 86.1 0 011.92-45.42c.24-.76.46-1.51.75-2.47L161.25 349.33c-16.31 22.68-38.09 36-66 38.33-24 2-45.47-5-64-20.5-35.33-29.64-41.25-82.84-13.74-119.7a88.42 88.42 0 01125.31-16.59l88.45-87.59c-4-7.3-8.51-13.9-11.32-21.18-13.22-34.21-8-65.66 16.24-93.27C250.84 12.15 269.83 3.06 292 .66a6.79 6.79 0 001.3-.42h15.82c4.05.77 8.12 1.38 12.12 2.31a88 88 0 01-6.78 172.56c-23.53 3.68-45.19-1.67-64.73-15.39l-2.24-1.56-89.29 88.45a88.25 88.25 0 0112.89 83.05l267.13 133.57c2.29-2.93 4.37-5.86 6.71-8.54q24.54-28.08 61.77-30.69c43.67-3.07 84.21 28.73 91.69 71.93l1.38 7.93zm-87.93-73.78c-36.14 0-65.94 29.79-65.94 65.95 0 35.79 29.64 65.84 65 65.86 36.89 0 66.8-29.14 66.82-65.15 0-36.95-29.33-66.65-65.88-66.66zM154.13 300c0-35.56-29.48-65.29-64.24-66-35.89-.6-67.06 28.09-67.58 65-.52 37.4 29.92 66.08 64.39 66.88A66.3 66.3 0 00154.13 300zm147-145.92a65.89 65.89 0 10-.9-131.77c-36.63.22-65.45 30.89-65.1 66.64.33 35.6 30.05 65.21 65.98 65.17z"/></svg>